<svg width="65" height="34" viewBox="0 0 65 34" fill="none" xmlns="http://www.w3.org/2000/svg">
<path d="M16.1524 8.78906C16.0873 8.09896 15.8789 7.50651 15.5274 7.01172C15.1758 6.51693 14.681 6.14583 14.043 5.89844C13.405 5.63802 12.6302 5.50781 11.7188 5.50781C10.8464 5.50781 10.1042 5.625 9.49221 5.85938C8.88023 6.09375 8.41799 6.41927 8.10549 6.83594C7.79299 7.2526 7.63674 7.73438 7.63674 8.28125C7.6107 9.10156 7.95575 9.75911 8.6719 10.2539C9.38804 10.7357 10.4427 11.1393 11.836 11.4648L14.2969 12.0117C17.1354 12.6367 19.2774 13.6458 20.7227 15.0391C22.168 16.4193 22.9037 18.2292 22.9297 20.4688C22.9297 22.2396 22.4805 23.7695 21.5821 25.0586C20.6836 26.3346 19.4011 27.3177 17.7344 28.0078C16.0677 28.6849 14.069 29.0234 11.7383 29.0234C9.35549 29.0234 7.29169 28.6654 5.5469 27.9492C3.80211 27.2331 2.45445 26.1589 1.50393 24.7266C0.553408 23.2812 0.0521062 21.4909 2.28882e-05 19.3555H6.40627C6.47138 20.2539 6.72528 21.0156 7.16799 21.6406C7.6107 22.2526 8.21617 22.7148 8.9844 23.0273C9.75263 23.3398 10.638 23.4961 11.6406 23.4961C12.5781 23.4961 13.3854 23.3659 14.0625 23.1055C14.7396 22.8451 15.2539 22.487 15.6055 22.0312C15.9701 21.5755 16.1524 21.0482 16.1524 20.4492C16.1524 19.9154 15.9896 19.4531 15.6641 19.0625C15.3386 18.6719 14.8438 18.3333 14.1797 18.0469C13.5156 17.7604 12.6433 17.4935 11.5625 17.2461L8.59377 16.543C6.05471 15.9701 4.11461 15.0456 2.77346 13.7695C1.43231 12.4935 0.761742 10.8138 0.761742 8.73047C0.761742 7.01172 1.23049 5.49479 2.16799 4.17969C3.10549 2.86458 4.40757 1.84245 6.07424 1.11328C7.74091 0.371094 9.63544 0 11.7578 0C13.9063 0 15.7878 0.364583 17.4024 1.09375C19.03 1.82292 20.2865 2.85156 21.1719 4.17969C22.0703 5.50781 22.5261 7.04427 22.5391 8.78906H16.1524ZM43.3492 33.5352H24.5406V28.6719H43.3492V33.5352ZM45.8 0.390625H52.4406V23.2422H64.2961V28.6719H45.8V0.390625Z" fill="url(#paint0_linear_27_4)"/>
<defs>
<linearGradient id="paint0_linear_27_4" x1="-5.32263" y1="14.6719" x2="69.6774" y2="14.6719" gradientUnits="userSpaceOnUse">
<stop stop-color="#619ED3"/>
<stop offset="0.5" stop-color="#51B79C"/>
<stop offset="1" stop-color="#4CC843"/>
</linearGradient>
</defs>
</svg>
