<svg width="196" height="34" viewBox="0 0 196 34" fill="none" xmlns="http://www.w3.org/2000/svg">
<path d="M16.1524 8.78906C16.0873 8.09896 15.8789 7.50651 15.5274 7.01172C15.1758 6.51693 14.681 6.14583 14.043 5.89844C13.405 5.63802 12.6302 5.50781 11.7188 5.50781C10.8464 5.50781 10.1042 5.625 9.49221 5.85938C8.88023 6.09375 8.41799 6.41927 8.10549 6.83594C7.79299 7.2526 7.63674 7.73438 7.63674 8.28125C7.6107 9.10156 7.95575 9.75911 8.6719 10.2539C9.38804 10.7357 10.4427 11.1393 11.836 11.4648L14.2969 12.0117C17.1354 12.6367 19.2774 13.6458 20.7227 15.0391C22.168 16.4193 22.9037 18.2292 22.9297 20.4688C22.9297 22.2396 22.4805 23.7695 21.5821 25.0586C20.6836 26.3346 19.4011 27.3177 17.7344 28.0078C16.0677 28.6849 14.069 29.0234 11.7383 29.0234C9.35549 29.0234 7.29169 28.6654 5.5469 27.9492C3.80211 27.2331 2.45445 26.1589 1.50393 24.7266C0.553408 23.2812 0.0521062 21.4909 2.28882e-05 19.3555H6.40627C6.47138 20.2539 6.72528 21.0156 7.16799 21.6406C7.6107 22.2526 8.21617 22.7148 8.9844 23.0273C9.75263 23.3398 10.638 23.4961 11.6406 23.4961C12.5781 23.4961 13.3854 23.3659 14.0625 23.1055C14.7396 22.8451 15.2539 22.487 15.6055 22.0312C15.9701 21.5755 16.1524 21.0482 16.1524 20.4492C16.1524 19.9154 15.9896 19.4531 15.6641 19.0625C15.3386 18.6719 14.8438 18.3333 14.1797 18.0469C13.5156 17.7604 12.6433 17.4935 11.5625 17.2461L8.59377 16.543C6.05471 15.9701 4.11461 15.0456 2.77346 13.7695C1.43231 12.4935 0.761742 10.8138 0.761742 8.73047C0.761742 7.01172 1.23049 5.49479 2.16799 4.17969C3.10549 2.86458 4.40757 1.84245 6.07424 1.11328C7.74091 0.371094 9.63544 0 11.7578 0C13.9063 0 15.7878 0.364583 17.4024 1.09375C19.03 1.82292 20.2865 2.85156 21.1719 4.17969C22.0703 5.50781 22.5261 7.04427 22.5391 8.78906H16.1524ZM33.4078 28.6719H26.7672V0.390625H33.4078V28.6719ZM64.6477 14.5312C64.6477 17.5521 64.0617 20.1562 62.8899 22.3438C61.718 24.5312 60.1164 26.1979 58.0852 27.3438C56.0539 28.4896 53.7558 29.0625 51.1906 29.0625C48.6386 29.0625 46.3404 28.4896 44.2961 27.3438C42.2649 26.1979 40.6633 24.5247 39.4914 22.3242C38.3326 20.1237 37.7531 17.526 37.7531 14.5312C37.7531 11.4844 38.3326 8.86719 39.4914 6.67969C40.6633 4.49219 42.2649 2.83203 44.2961 1.69922C46.3404 0.566406 48.6386 0 51.1906 0C53.7558 0 56.0539 0.566406 58.0852 1.69922C60.1164 2.83203 61.718 4.49219 62.8899 6.67969C64.0617 8.86719 64.6477 11.4844 64.6477 14.5312ZM57.8508 14.5312C57.8508 12.6693 57.5839 11.0938 57.05 9.80469C56.5292 8.5026 55.7675 7.51953 54.7649 6.85547C53.7753 6.17839 52.5839 5.83984 51.1906 5.83984C49.8104 5.83984 48.619 6.17839 47.6164 6.85547C46.6268 7.51953 45.8651 8.5026 45.3313 9.80469C44.8104 11.0938 44.55 12.6693 44.55 14.5312C44.55 16.3932 44.8104 17.9753 45.3313 19.2773C45.8651 20.5664 46.6268 21.5495 47.6164 22.2266C48.619 22.8906 49.8104 23.2227 51.1906 23.2227C52.5839 23.2227 53.7753 22.8906 54.7649 22.2266C55.7675 21.5495 56.5292 20.5664 57.05 19.2773C57.5839 17.9753 57.8508 16.3932 57.8508 14.5312ZM92.9383 28.6719H87.2742L75.8289 12.0703H75.6141V28.6719H68.9735V0.390625H74.7352L86.0633 16.9727H86.3172V0.390625H92.9383V28.6719ZM115.565 33.5352H96.7563V28.6719H115.565V33.5352ZM118.016 0.390625H124.656V23.2422H136.512V28.6719H118.016V0.390625ZM165.818 14.5312C165.818 17.5521 165.232 20.1562 164.06 22.3438C162.888 24.5312 161.287 26.1979 159.255 27.3438C157.224 28.4896 154.926 29.0625 152.361 29.0625C149.809 29.0625 147.511 28.4896 145.466 27.3438C143.435 26.1979 141.834 24.5247 140.662 22.3242C139.503 20.1237 138.923 17.526 138.923 14.5312C138.923 11.4844 139.503 8.86719 140.662 6.67969C141.834 4.49219 143.435 2.83203 145.466 1.69922C147.511 0.566406 149.809 0 152.361 0C154.926 0 157.224 0.566406 159.255 1.69922C161.287 2.83203 162.888 4.49219 164.06 6.67969C165.232 8.86719 165.818 11.4844 165.818 14.5312ZM159.021 14.5312C159.021 12.6693 158.754 11.0938 158.22 9.80469C157.7 8.5026 156.938 7.51953 155.935 6.85547C154.946 6.17839 153.754 5.83984 152.361 5.83984C150.981 5.83984 149.789 6.17839 148.787 6.85547C147.797 7.51953 147.035 8.5026 146.502 9.80469C145.981 11.0938 145.72 12.6693 145.72 14.5312C145.72 16.3932 145.981 17.9753 146.502 19.2773C147.035 20.5664 147.797 21.5495 148.787 22.2266C149.789 22.8906 150.981 23.2227 152.361 23.2227C153.754 23.2227 154.946 22.8906 155.935 22.2266C156.938 21.5495 157.7 20.5664 158.22 19.2773C158.754 17.9753 159.021 16.3932 159.021 14.5312ZM188.738 9.60938C188.529 8.8151 188.178 8.13802 187.683 7.57812C187.188 7.01823 186.583 6.58854 185.866 6.28906C185.15 5.98958 184.323 5.83984 183.386 5.83984C182.006 5.83984 180.801 6.17839 179.773 6.85547C178.757 7.53255 177.969 8.52214 177.409 9.82422C176.863 11.1263 176.589 12.6823 176.589 14.4922C176.589 16.3411 176.856 17.9167 177.39 19.2188C177.924 20.5078 178.698 21.4974 179.714 22.1875C180.743 22.8776 181.967 23.2227 183.386 23.2227C184.649 23.2227 185.73 23.0078 186.628 22.5781C187.527 22.1484 188.204 21.543 188.659 20.7617C189.128 19.9805 189.363 19.0625 189.363 18.0078L190.613 18.1641H183.659V13.2617H195.769V16.9727C195.769 19.4466 195.235 21.5951 194.167 23.418C193.113 25.2409 191.648 26.6406 189.773 27.6172C187.911 28.5807 185.769 29.0625 183.347 29.0625C180.678 29.0625 178.314 28.4766 176.257 27.3047C174.213 26.1328 172.624 24.4531 171.491 22.2656C170.359 20.0781 169.792 17.513 169.792 14.5703C169.792 11.5625 170.385 8.95833 171.57 6.75781C172.754 4.55729 174.363 2.88411 176.394 1.73828C178.425 0.579427 180.704 0 183.23 0C185.391 0 187.357 0.410156 189.128 1.23047C190.912 2.05078 192.357 3.1901 193.464 4.64844C194.584 6.09375 195.261 7.7474 195.495 9.60938H188.738Z" fill="url(#paint0_linear_25_3)"/>
<defs>
<linearGradient id="paint0_linear_25_3" x1="-1.34216" y1="14.6719" x2="197.658" y2="14.6719" gradientUnits="userSpaceOnUse">
<stop stop-color="#619ED3"/>
<stop offset="0.5" stop-color="#51B79C"/>
<stop offset="1" stop-color="#4CC843"/>
</linearGradient>
</defs>
</svg>
